<svg width="128" height="34" viewBox="0 0 128 34" fill="none" xmlns="http://www.w3.org/2000/svg">
<path fill-rule="evenodd" clip-rule="evenodd" d="M20.2002 33.0681C27.6803 31.4298 33.2814 24.7352 33.2814 16.7258C33.2814 7.48839 25.8311 0 16.6407 0C7.4503 0 0 7.48839 0 16.7258C0 24.2344 4.92257 30.5874 11.701 32.7023V12.5564C11.701 11.8528 12.2697 11.2825 12.9732 11.2825L27.618 11.2825C28.3709 11.2825 28.7491 12.1897 28.2214 12.7269L16.5854 24.5727C15.282 25.8996 14.7982 27.8277 15.3208 29.6128C15.9652 31.8139 18.0319 33.1866 20.2002 33.0681Z" fill="url(#paint0_linear_2960_6399)"/>
<mask id="mask0_2960_6399" style="mask-type:alpha" maskUnits="userSpaceOnUse" x="0" y="0" width="34" height="34">
<path fill-rule="evenodd" clip-rule="evenodd" d="M20.2002 33.0681C27.6803 31.4298 33.2814 24.7352 33.2814 16.7258C33.2814 7.48839 25.8311 0 16.6407 0C7.4503 0 0 7.48839 0 16.7258C0 24.2344 4.92257 30.5874 11.701 32.7023V12.5564C11.701 11.8528 12.2697 11.2825 12.9732 11.2825L27.618 11.2825C28.3709 11.2825 28.7491 12.1897 28.2214 12.7269L16.5854 24.5727C15.282 25.8996 14.7982 27.8277 15.3208 29.6128C15.9652 31.8139 18.0319 33.1866 20.2002 33.0681Z" fill="url(#paint1_linear_2960_6399)"/>
</mask>
<g mask="url(#mask0_2960_6399)">
<path fill-rule="evenodd" clip-rule="evenodd" d="M19.415 0.209112L19.5959 0.286877H19.415C19.3155 0.286877 19.1527 0.251932 19.0532 0.209112L18.8722 0.131348H19.0532C19.1527 0.131348 19.3155 0.166292 19.415 0.209112ZM18.0128 0.299641C18.0128 0.41407 17.828 0.41407 17.651 0.299641C17.5452 0.231292 17.5702 0.211556 17.7641 0.21047C17.9009 0.209746 18.0128 0.24985 18.0128 0.299641ZM16.0227 0.480699C16.0227 0.53049 15.9795 0.571229 15.9269 0.571229C15.8742 0.571229 15.8562 0.53049 15.887 0.480699C15.9177 0.430908 15.9608 0.39017 15.9828 0.39017C16.0048 0.39017 16.0227 0.430908 16.0227 0.480699ZM20.9981 0.674341C21.2306 0.782614 21.3532 0.883192 21.2842 0.908812C21.1426 0.961409 20.4553 0.670086 20.4553 0.557468C20.4553 0.444397 20.5468 0.464042 20.9981 0.674341ZM19.4531 0.595219C19.5736 0.656688 19.6909 0.764146 19.714 0.833944C19.7466 0.932983 19.6906 0.947739 19.4583 0.901298C19.1185 0.83322 18.8963 0.678777 18.969 0.560999C19.0368 0.451278 19.1927 0.462231 19.4531 0.595219ZM21.9027 0.752287C21.9773 0.800539 21.9977 0.84001 21.9479 0.84001C21.8982 0.84001 21.7964 0.800539 21.7218 0.752287C21.6472 0.704035 21.6268 0.664564 21.6766 0.664564C21.7263 0.664564 21.8281 0.704035 21.9027 0.752287ZM17.5002 0.81267C17.6542 0.96666 17.5499 1.12518 17.3126 1.09775C16.9867 1.06018 16.9062 0.752287 17.2222 0.752287C17.342 0.752287 17.4671 0.779445 17.5002 0.81267ZM22.5812 1.19706C22.7802 1.29012 23.0244 1.43053 23.1239 1.50902L23.3049 1.65178L23.1239 1.65387C22.9517 1.65577 21.9932 1.15858 21.9932 1.06733C21.9932 0.980058 22.2278 1.03184 22.5812 1.19706ZM21.2357 1.19751C21.6568 1.38889 21.7861 1.53889 21.6484 1.67668C21.4594 1.86589 20.464 1.32009 20.5992 1.10128C20.6702 0.986214 20.821 1.00903 21.2357 1.19751ZM19.188 1.32171C19.4537 1.45624 19.5337 1.72557 19.3311 1.80342C18.9736 1.94066 18.3675 1.56759 18.5636 1.33113C18.6927 1.17542 18.8932 1.17243 19.188 1.32171ZM15.0615 1.26903C15.0899 1.29745 15.0915 1.35575 15.0651 1.39857C15.0015 1.50142 14.7562 1.49915 14.7562 1.39568C14.7562 1.29573 14.991 1.19841 15.0615 1.26903ZM23.531 1.43126C23.6554 1.50241 23.7141 1.56207 23.6614 1.56388C23.6087 1.5656 23.4866 1.50721 23.39 1.43415C23.1666 1.26504 23.238 1.2636 23.531 1.43126ZM24.0433 1.71832C24.0166 1.74494 24.2445 1.93568 24.5496 2.14218C24.8548 2.34868 25.1212 2.57138 25.1416 2.63719C25.1914 2.79743 24.3949 2.3857 23.9893 2.04151C23.6861 1.78423 23.6836 1.77662 23.8852 1.72385C23.9988 1.69415 24.0699 1.69162 24.0433 1.71832ZM16.7238 1.71561C17.0435 1.85022 16.6933 2.25244 16.3346 2.16237C16.1584 2.1181 16.1084 2.05482 16.1299 1.90336C16.1584 1.70293 16.4642 1.60625 16.7238 1.71561ZM23.0787 1.92455C23.5213 2.15992 23.8623 2.53915 23.7407 2.66082C23.5403 2.86143 22.4455 2.19043 22.4455 1.86697C22.4455 1.70167 22.7039 1.7252 23.0787 1.92455ZM21.1613 2.07302C21.5354 2.25969 21.6313 2.35257 21.6313 2.52856C21.6313 2.65014 21.571 2.77281 21.4972 2.80114C21.265 2.89022 20.6161 2.62017 20.4181 2.35212C20.2317 2.09945 20.2315 2.09438 20.4048 1.96737C20.631 1.80152 20.6113 1.7988 21.1613 2.07302ZM25.4986 2.48275C25.807 2.68038 25.9067 2.81309 25.6343 2.66318C25.4267 2.54902 25.1015 2.29744 25.1593 2.29572C25.1842 2.2949 25.3369 2.3791 25.4986 2.48275ZM18.5741 2.39512C19.0423 2.56649 18.951 3.10604 18.4538 3.10604C17.9325 3.10604 17.5577 2.6496 17.8834 2.41132C18.0723 2.27309 18.2306 2.26937 18.5741 2.39512ZM13.829 2.49497C13.772 2.66625 13.4897 2.69061 13.4897 2.52421C13.4897 2.44029 13.5671 2.38181 13.6782 2.38181C13.7887 2.38181 13.8511 2.42861 13.829 2.49497ZM25.1204 2.95214C25.6579 3.32277 25.9579 3.701 25.8223 3.8367C25.6785 3.98065 25.1697 3.73794 24.7225 3.31218C24.0478 2.66997 24.3348 2.41033 25.1204 2.95214ZM26.1215 3.09853C26.6727 3.46698 27.1574 3.92081 26.9999 3.92081C26.8484 3.92081 26.1287 3.40959 25.7975 3.06666C25.6259 2.88914 25.5094 2.74393 25.5384 2.74393C25.5673 2.74393 25.8298 2.90353 26.1215 3.09853ZM23.149 2.89221C23.4798 3.0577 23.8929 3.50528 23.8929 3.69829C23.8929 4.09109 23.1009 3.96833 22.6122 3.49985C22.0751 2.98492 22.4611 2.54802 23.149 2.89221ZM15.7384 3.00556C15.9187 3.11999 15.7799 3.45757 15.5262 3.52121C15.0613 3.63799 14.7732 3.36758 15.0312 3.05643C15.1512 2.91177 15.5457 2.88343 15.7384 3.00556ZM20.5457 3.11718C21.11 3.34242 21.3712 3.90198 21.0041 4.0987C20.7276 4.24671 20.4161 4.20914 20.0933 3.9887C19.6887 3.7125 19.592 3.42688 19.8243 3.1944C20.0199 2.99859 20.2001 2.9793 20.5457 3.11718ZM17.7745 3.74636C18.2142 4.09245 17.9929 4.55451 17.3872 4.55451C16.8074 4.55451 16.5212 3.9983 16.9475 3.69964C17.2215 3.50754 17.4904 3.52275 17.7745 3.74636ZM28.2952 4.7993C29.4082 5.90285 29.7793 6.33802 30.0895 6.9041C30.5756 7.79102 30.8215 8.17314 30.9069 8.17441C31.0258 8.17604 31.9493 10.0453 31.9811 10.3484C32.0166 10.6884 32.3129 11.5518 32.4471 11.7068C32.7241 12.0265 33.2929 14.5398 33.055 14.3927C32.9269 14.3135 33.0063 15.0698 33.1858 15.6389C33.3559 16.1781 33.2905 18.0743 33.088 18.4767C33.02 18.6118 32.9412 18.926 32.9129 19.175C32.8846 19.4239 32.8313 19.7056 32.7944 19.8009C32.7476 19.9221 32.7592 19.9545 32.8332 19.9087C32.9715 19.8231 32.9658 19.9538 32.7998 20.6687C32.5684 21.6655 32.3006 22.3887 32.1627 22.3887C32.0922 22.3887 32.0344 22.4397 32.0344 22.5019C32.0343 22.665 31.5043 23.7632 31.3353 23.9504C30.9292 24.4002 30.9598 23.7118 31.3864 22.7995C31.6235 22.2924 31.6364 22.2287 31.4827 22.3239C31.1247 22.546 31.0225 21.9371 31.2655 21.0308C31.339 20.757 31.3994 20.5329 31.3999 20.5329C31.4003 20.5329 31.2583 20.5298 31.0843 20.5261C30.7993 20.52 30.768 20.5435 30.768 20.7637C30.768 21.7111 29.7364 22.816 29.4142 22.2137C29.2657 21.9358 29.305 21.2581 29.4983 20.7675L29.6758 20.3165L29.3614 20.5023C29.0704 20.6741 29.0307 20.6773 28.8299 20.5458C28.3987 20.263 28.3046 19.2398 28.6485 18.5741L28.7806 18.3185L28.4428 18.5479C28.0467 18.8169 27.751 18.7866 27.4466 18.4458C26.6572 17.5623 27.3103 15.7603 28.3153 16.0488C28.5672 16.1211 28.5999 16.1117 28.5609 15.9787C28.439 15.5638 28.3243 14.6785 28.3806 14.5873C28.4254 14.5148 28.3797 14.5044 28.2265 14.5522C27.5264 14.7709 27.1082 14.5973 26.7772 13.9504C26.1842 12.7913 26.8938 11.5163 27.8551 12.0137C28.3214 12.2551 28.5436 12.6639 28.5824 13.352L28.6168 13.9607L28.8332 13.8188C28.9537 13.7398 29.152 13.6965 29.2808 13.7211C29.4679 13.757 29.5 13.7373 29.449 13.6185C29.4143 13.5377 29.3666 13.2419 29.3431 12.961L29.3003 12.4505L28.9631 12.4957C28.6758 12.5343 28.5748 12.4962 28.2806 12.2376C28.0907 12.0707 27.8612 11.7709 27.7705 11.5713C27.5661 11.1209 27.5519 10.3696 27.7427 10.097C27.8972 9.87617 28.3001 9.82729 28.6076 9.99196C28.7742 10.0812 28.7719 10.0631 28.5758 9.743C28.1173 8.9946 28.0123 8.4115 28.2867 8.13684C28.4606 7.96293 28.4878 7.96239 28.8034 8.12715C29.0807 8.27191 29.0737 8.249 28.6694 7.68646C28.3447 7.23453 28.1838 6.6718 28.3292 6.49636C28.6466 6.11369 29.8634 7.51029 29.8634 8.25724C29.8634 8.60071 29.7317 8.68137 29.4608 8.50384C29.2605 8.37248 29.2664 8.40064 29.5552 8.95522C29.7247 9.28058 29.8634 9.60993 29.8634 9.68706C29.8634 9.7995 29.8895 9.80565 29.9947 9.71829C30.067 9.65827 30.2089 9.63546 30.3102 9.66768C30.4813 9.722 30.4752 9.68579 30.2241 9.15457C29.8334 8.32804 29.8853 7.71751 30.313 8.10778C30.3813 8.17006 30.3472 8.07836 30.2372 7.90409C29.996 7.52205 29.5015 6.57412 29.5015 6.49382C29.5015 6.46214 29.5613 6.45924 29.6344 6.48731C29.7075 6.51537 29.536 6.25492 29.2532 5.90855C28.9704 5.56219 28.7026 5.27874 28.658 5.27874C28.5247 5.27874 27.7191 4.56927 27.4127 4.18207C26.861 3.485 27.2296 3.74274 28.2952 4.7993ZM26.5615 3.84748C27.0485 4.12269 27.7827 4.90911 27.7827 5.15544C27.7827 5.41689 27.389 5.25883 26.9092 4.80473C26.4052 4.32764 26.1133 3.90161 26.2184 3.79651C26.2951 3.71965 26.3496 3.7278 26.5615 3.84748ZM24.9601 3.83471C25.5432 4.06882 26.1587 4.81062 26.0357 5.13109C25.9064 5.46867 25.1974 5.23538 24.7285 4.70089C24.389 4.31397 24.2952 4.04492 24.4393 3.8712C24.5627 3.72237 24.6629 3.71531 24.9601 3.83471ZM12.359 3.92081C12.4425 4.05606 12.3263 4.19239 12.1275 4.19239C11.9274 4.19239 11.9022 4.09725 12.0605 3.93891C12.1927 3.80656 12.285 3.80095 12.359 3.92081ZM22.6264 4.0967C22.701 4.1378 22.8754 4.22453 23.0139 4.28935C23.2554 4.40251 23.6215 4.87842 23.6215 5.07931C23.6215 5.2629 23.3354 5.4598 23.0687 5.4598C22.4041 5.4598 21.6658 4.72588 21.8965 4.2946C22.0386 4.02881 22.3499 3.94443 22.6264 4.0967ZM19.8841 4.59652C20.4472 4.84158 20.5669 5.47782 20.0974 5.72931C19.479 6.06055 18.5242 5.39227 18.8215 4.83642C19.0204 4.46452 19.3894 4.38124 19.8841 4.59652ZM14.3763 4.57262C14.662 4.8586 14.3505 5.22669 13.8698 5.17119C13.6895 5.15037 13.6173 5.08492 13.5942 4.9217C13.5421 4.55197 14.1047 4.30085 14.3763 4.57262ZM28.4333 5.27938C28.8494 5.62257 29.3781 6.33811 29.4616 6.6709L29.5254 6.92529L29.2577 6.78669C28.7232 6.51012 27.6893 5.00716 28.0335 5.00716C28.0719 5.00716 28.2519 5.12964 28.4333 5.27938ZM27.0138 5.17617C27.4228 5.43373 27.8465 5.91561 28.0109 6.31005C28.1417 6.62391 28.1429 6.67724 28.0214 6.79873C27.6375 7.18293 26.3648 5.97129 26.443 5.29612C26.478 4.99403 26.6629 4.95519 27.0138 5.17617ZM25.1262 5.36194C25.8255 5.7886 26.1495 6.72078 25.663 6.90591C25.188 7.08661 24.4697 6.67968 24.17 6.06019C23.9826 5.67264 23.9936 5.40087 24.2029 5.25747C24.3813 5.13525 24.8397 5.18704 25.1262 5.36194ZM16.4438 5.3203C16.7696 5.46134 16.8916 5.73148 16.7493 5.99745C16.448 6.56091 15.4799 6.4338 15.4799 5.83079C15.4799 5.37389 15.9689 5.11479 16.4438 5.3203ZM22.2536 5.70513C22.6053 5.87859 22.897 6.30435 22.8974 6.64528C22.8985 7.37766 21.5299 7.35783 21.1205 6.61948C20.6959 5.85369 21.4008 5.28472 22.2536 5.70513ZM19.0914 6.50894C19.4342 6.79755 19.4473 7.07384 19.1356 7.44447C18.9337 7.68464 18.8412 7.72303 18.4652 7.72303C18.0891 7.72303 17.9967 7.68464 17.7947 7.44447C17.5009 7.09503 17.4969 6.78261 17.7826 6.49681C18.0985 6.18059 18.7082 6.1863 19.0914 6.50894ZM12.9771 6.42548C13.1181 6.56661 13.025 6.91225 12.8076 7.05483C12.3502 7.35476 11.899 6.87649 12.2983 6.51492C12.464 6.36482 12.8639 6.31213 12.9771 6.42548ZM27.3172 6.87269C27.9284 7.39622 28.2434 8.22166 27.9456 8.51968C27.8859 8.57943 27.6969 8.62832 27.5256 8.62832C27.2745 8.62832 27.1308 8.54485 26.7849 8.19831C26.2822 7.69469 26.0636 7.13441 26.2285 6.7722C26.3884 6.42122 26.8388 6.46286 27.3172 6.87269ZM24.6236 7.0236C25.2894 7.47253 25.541 8.24638 25.1488 8.63891C24.7395 9.04846 23.6718 8.62533 23.3857 7.9403C23.2137 7.52821 23.227 7.33629 23.4472 7.05628C23.6911 6.74586 24.1912 6.73192 24.6236 7.0236ZM15.2578 7.4021C15.5288 7.67315 15.5354 7.80912 15.2924 8.11819C15.1491 8.3006 15.0246 8.35673 14.7636 8.35673C14.1414 8.35673 13.89 7.73851 14.3614 7.36752C14.6775 7.11857 14.9865 7.13052 15.2578 7.4021ZM21.2363 7.52948C21.6322 7.77816 21.8122 8.06921 21.8122 8.46084C21.8122 8.90932 21.4902 9.17149 20.9393 9.17149C20.4311 9.17149 19.9332 8.7528 19.8549 8.25941C19.7466 7.57719 20.597 7.1278 21.2363 7.52948ZM26.7614 8.44409C27.4476 8.86279 27.8272 9.99051 27.4252 10.4163C26.9622 10.9067 26.0251 10.4748 25.6612 9.60314C25.4564 9.11274 25.4832 8.74863 25.7433 8.48845C26.0131 8.21831 26.3663 8.20301 26.7614 8.44409ZM17.6807 8.45115C17.9565 8.66833 18.076 9.15583 17.9234 9.44118C17.865 9.55027 17.6747 9.6991 17.5003 9.77207C16.6158 10.1419 15.8574 9.10269 16.5724 8.50058C16.9134 8.21342 17.3537 8.19378 17.6807 8.45115ZM30.9693 9.05363C31.1618 9.43693 31.3807 9.75957 31.4558 9.77062C31.5309 9.78166 31.5799 9.76337 31.5647 9.73006C31.141 8.80386 30.999 8.56115 30.8325 8.4784C30.7224 8.42372 30.6294 8.37393 30.6258 8.36787C30.6222 8.36171 30.7768 8.67033 30.9693 9.05363ZM11.4392 8.59817C11.5376 8.69649 11.5081 9.03624 11.391 9.15339C11.3313 9.21314 11.1685 9.26202 11.0292 9.26202C10.8213 9.26202 10.7759 9.22264 10.7759 9.04213C10.7759 8.683 11.2242 8.3829 11.4392 8.59817ZM23.7129 8.92254C24.1648 9.23034 24.3554 9.54103 24.3615 9.97965C24.369 10.5246 24.0457 10.8463 23.4904 10.8463C23.0384 10.8463 22.6975 10.6385 22.3776 10.1682C22.1041 9.76591 22.115 9.34613 22.4083 8.99741C22.6023 8.76656 22.7085 8.71885 23.0281 8.71885C23.2792 8.71885 23.5182 8.78991 23.7129 8.92254ZM19.9621 9.57037C20.3262 9.72906 20.5458 10.081 20.5458 10.5061C20.5458 10.9449 20.3583 11.2118 19.9575 11.3443C19.1348 11.616 18.362 10.8062 18.6913 10.0176C18.7781 9.80981 18.9246 9.66461 19.1375 9.57562C19.5196 9.41583 19.6064 9.41529 19.9621 9.57037ZM13.8526 9.60676C14.017 9.74002 14.0427 9.82394 13.9911 10.0592C13.9137 10.412 13.6376 10.62 13.2467 10.62C12.923 10.62 12.7661 10.4297 12.7661 10.0375C12.7661 9.52519 13.4281 9.26275 13.8526 9.60676ZM31.1001 10.387C30.9663 10.3357 30.9694 10.3738 31.1279 10.7234C31.2263 10.9404 31.3077 11.1844 31.3088 11.2657C31.3098 11.3475 31.4042 11.4315 31.5196 11.4536L31.7285 11.4936L31.547 10.8767C31.4471 10.5374 31.3397 10.3015 31.3082 10.3524C31.2768 10.4033 31.1831 10.419 31.1001 10.387ZM29.1844 10.6426C29.3016 10.8542 29.4255 11.1812 29.46 11.3692C29.5107 11.6463 29.5461 11.6914 29.6472 11.6075C29.7158 11.5505 29.8576 11.5263 29.9623 11.5537C30.1231 11.5958 30.1439 11.5729 30.0963 11.4059C30.0653 11.2973 29.9937 11.0169 29.9372 10.7829C29.8472 10.4103 29.8138 10.3686 29.6682 10.4465C29.5504 10.5096 29.4297 10.4962 29.253 10.4003C29.1161 10.3259 28.9966 10.2635 28.9877 10.2615C28.9788 10.2595 29.0673 10.4309 29.1844 10.6426ZM25.9827 10.4623C26.8755 11.056 26.8908 12.5203 26.0065 12.7423C25.7038 12.8184 25.0513 12.5157 24.822 12.193C23.9984 11.0335 24.8754 9.7258 25.9827 10.4623ZM16.3271 10.8076C16.6015 11.0236 16.6409 11.3883 16.4331 11.7903C16.2858 12.0753 16.1311 12.159 15.7513 12.159C15.3714 12.159 15.2168 12.0753 15.0695 11.7903C14.8732 11.4105 14.9068 11.1795 15.2016 10.8846C15.525 10.5609 15.9747 10.5302 16.3271 10.8076ZM22.4077 10.9793C22.9086 11.1821 23.2742 11.9777 23.1035 12.4936C22.9176 13.0554 22.0809 13.3238 21.5303 12.9983C21.2471 12.831 20.9076 12.2318 20.9076 11.8996C20.9076 11.6229 21.136 11.2036 21.3796 11.0329C21.5957 10.8813 22.1007 10.855 22.4077 10.9793ZM9.91704 11.1639C9.94798 11.2142 9.94771 11.3364 9.91623 11.4355C9.84911 11.6471 9.52724 11.6771 9.45125 11.4788C9.35048 11.216 9.77276 10.9305 9.91704 11.1639ZM18.4652 11.8983C18.8017 12.0322 19.1727 12.4223 19.2354 12.7083C19.3565 13.26 18.6889 13.8719 18.1057 13.7438C17.2022 13.5451 17.0447 12.2749 17.8802 11.9255C18.0495 11.8548 18.1995 11.7995 18.2135 11.8025C18.2275 11.8057 18.3408 11.8488 18.4652 11.8983ZM12.3137 12.159C12.6548 12.5002 12.4274 13.0642 11.9488 13.0642C11.4162 13.0642 11.2772 12.3329 11.7607 12.0739C12.0138 11.9383 12.1078 11.9528 12.3137 12.159ZM32.2657 12.5136C32.2975 12.5923 32.3455 12.8106 32.3721 12.9985C32.4169 13.3138 32.5341 13.4997 32.6285 13.4053C32.65 13.3836 32.6227 13.1419 32.5677 12.8681C32.5022 12.5417 32.423 12.3702 32.3377 12.3702C32.2549 12.3702 32.2287 12.4223 32.2657 12.5136ZM30.8584 12.4714C30.8584 12.4938 30.9016 12.7134 30.9542 12.9594C31.0369 13.3452 31.0755 13.3999 31.2344 13.3584C31.3849 13.319 31.4088 13.2606 31.3648 13.0401C31.335 12.8915 31.3108 12.6936 31.3108 12.6003C31.3108 12.4796 31.2454 12.4305 31.0846 12.4305C30.9602 12.4305 30.8584 12.4489 30.8584 12.4714ZM24.5847 12.6167C24.9556 12.7285 25.4059 13.2475 25.4815 13.6502C25.5633 14.0863 25.4687 14.398 25.1617 14.7054C24.9506 14.9166 24.8235 14.9654 24.4843 14.9654C24.1247 14.9654 24.0149 14.9169 23.6925 14.616C23.349 14.2954 23.315 14.2219 23.279 13.7233C23.243 13.225 23.2612 13.1564 23.4985 12.8956C23.7858 12.5797 24.1511 12.4859 24.5847 12.6167ZM14.7892 13.3424C15.2988 13.7436 14.9703 14.6032 14.3074 14.6032C13.7317 14.6032 13.4626 13.8074 13.8928 13.377C14.1641 13.1054 14.4731 13.0935 14.7892 13.3424ZM21.0694 13.4233C21.7797 13.7498 21.8973 14.5987 21.3089 15.1518C20.9676 15.4728 20.281 15.4658 19.9535 15.138C19.3358 14.5198 19.6195 13.4774 20.4553 13.2946C20.5865 13.2658 20.8443 13.3199 21.0694 13.4233ZM27.0135 14.5396C27.2923 14.8185 27.5097 15.3352 27.5108 15.7212C27.5117 16.0233 27.2145 16.5225 26.9306 16.6957C26.3742 17.0353 25.8318 16.8092 25.5118 16.1041C25.3052 15.6488 25.2982 15.3459 25.4836 14.8821C25.7659 14.1761 26.4887 14.0143 27.0135 14.5396ZM17.3385 14.6444C17.5078 14.8138 17.5605 14.9624 17.5605 15.2701C17.5605 15.6094 17.5163 15.7107 17.2822 15.9079C16.9052 16.2253 16.5338 16.2149 16.1966 15.8776C15.8142 15.4949 15.8561 14.8688 16.2862 14.5382C16.5411 14.3423 17.0923 14.398 17.3385 14.6444ZM32.1098 15.0418C32.1323 15.3642 32.1774 15.474 32.2907 15.4826C32.4175 15.4923 32.4366 15.4175 32.4111 15.014C32.3862 14.6187 32.3541 14.5407 32.2302 14.573C32.1108 14.6042 32.0859 14.701 32.1098 15.0418ZM30.1505 14.8975C30.1983 15.1091 30.216 15.3916 30.1896 15.5253C30.1433 15.7599 30.1509 15.7651 30.4096 15.6748C30.6614 15.587 30.6775 15.5523 30.6775 15.0983C30.6775 14.6408 30.6643 14.6133 30.4288 14.5775C30.2919 14.5568 30.1537 14.5337 30.1217 14.5263C30.0897 14.5188 30.1026 14.6858 30.1505 14.8975ZM11.0097 14.9074C11.0382 14.9818 11.0482 15.1374 11.0318 15.253C11.0082 15.4196 10.9458 15.4633 10.7307 15.4633C10.4808 15.4633 10.4593 15.4381 10.4593 15.1464C10.4593 14.8679 10.4894 14.8261 10.7086 14.8009C10.8667 14.7827 10.9768 14.8216 11.0097 14.9074ZM23.4948 15.0466C23.7754 15.2178 24.0738 15.7857 24.0738 16.1486C24.0738 16.5795 23.6734 17.0377 23.1896 17.1605C22.6466 17.2985 21.9985 16.8182 21.863 16.1776C21.7795 15.7827 22.0388 15.1743 22.3617 15.0072C22.7115 14.8261 23.159 14.8417 23.4948 15.0466ZM19.7247 16.0145C19.967 16.2186 20.003 16.3074 20.003 16.7004C20.003 17.0788 19.9601 17.1949 19.7386 17.4166C19.1766 17.979 18.1938 17.6017 18.1938 16.8236C18.1938 16.4359 18.397 16.004 18.6411 15.8734C18.9582 15.7035 19.4281 15.7647 19.7247 16.0145ZM13.3223 15.9057C13.6548 16.0715 13.7441 16.453 13.521 16.7535C13.2628 17.101 12.9286 17.1225 12.6809 16.8075C12.2783 16.2951 12.7561 15.6232 13.3223 15.9057ZM32.7432 17.1449C32.7215 17.5301 32.7448 17.6815 32.826 17.6814C32.8985 17.6813 32.9395 17.5432 32.9403 17.2965C32.941 17.0848 32.9662 16.8195 32.9964 16.7067C33.0391 16.5474 33.0203 16.5136 32.9125 16.555C32.8145 16.5926 32.7646 16.7664 32.7432 17.1449ZM28.9502 16.977C29.0365 17.2899 29.032 17.4468 28.9267 17.793L28.7964 18.2217L28.9881 18.0873C29.0936 18.0133 29.3031 17.9528 29.4538 17.9528H29.7277V17.2806V16.6085L29.4879 16.6564C29.356 16.6829 29.1731 16.6625 29.0815 16.6112C28.848 16.4805 28.8283 16.5353 28.9502 16.977ZM25.3769 16.6404C25.7405 16.8332 25.859 17.0169 25.9762 17.5692C26.0682 18.003 26.0593 18.0749 25.8765 18.3707C25.3665 19.1966 24.4112 19.2449 24.0408 18.4637C23.5559 17.4411 24.4881 16.169 25.3769 16.6404ZM31.3108 17.1306C31.3108 17.3257 31.2887 17.543 31.2616 17.6134C31.2247 17.7097 31.2753 17.7323 31.4652 17.7044C31.7025 17.6696 31.7178 17.6403 31.7178 17.2216C31.7178 16.8198 31.6978 16.7759 31.5143 16.7759C31.3378 16.7759 31.3108 16.8232 31.3108 17.1306ZM15.7215 17.0932C16.0232 17.2201 16.1131 17.3786 16.1131 17.7833C16.1131 18.1191 15.7544 18.496 15.4347 18.496C14.9342 18.496 14.5868 17.805 14.8448 17.3226C14.9825 17.0651 15.397 16.9565 15.7215 17.0932ZM22.0001 17.5837C22.2202 17.804 22.2642 17.9216 22.2626 18.2853C22.2595 18.9446 21.8884 19.3108 21.2233 19.3108C20.7434 19.3108 20.3649 18.9121 20.3649 18.4065C20.3649 17.7145 20.7169 17.3244 21.3443 17.3211C21.6578 17.3195 21.7883 17.3718 22.0001 17.5837ZM27.0692 18.3565C27.5907 18.6483 27.6598 19.6592 27.1995 20.2631C26.5638 21.0972 25.6129 20.7555 25.612 19.6926C25.6111 18.7087 26.4022 17.9834 27.0692 18.3565ZM18.2431 18.5372C18.7387 19.0331 18.3874 19.9445 17.7006 19.9445C17.1807 19.9445 16.8286 19.445 16.965 18.9011C17.1127 18.312 17.8176 18.1113 18.2431 18.5372ZM12.2669 18.6431C12.4466 18.8229 12.4143 19.1217 12.2007 19.2558C11.8727 19.4616 11.5178 18.9371 11.7751 18.6268C11.9171 18.4556 12.0851 18.4612 12.2669 18.6431ZM31.944 18.9824C31.944 19.1388 31.9051 19.4023 31.8577 19.5679C31.7846 19.823 31.7909 19.8529 31.8989 19.7633C31.9691 19.705 32.0657 19.6815 32.1136 19.7112C32.1974 19.7629 32.2309 19.6515 32.3468 18.9382C32.3973 18.6271 32.3887 18.613 32.172 18.6545C31.986 18.6901 31.944 18.7505 31.944 18.9824ZM30.1347 18.9116C30.1347 19.0655 30.0783 19.3792 30.0093 19.6086L29.8839 20.0258L30.1086 19.8784C30.2887 19.7602 30.3676 19.7524 30.5055 19.8384C30.6648 19.938 30.6775 19.9165 30.6775 19.5491C30.6775 19.3309 30.7009 19.0352 30.7295 18.8921C30.7791 18.6442 30.7661 18.6318 30.4581 18.6318C30.157 18.6318 30.1347 18.6511 30.1347 18.9116ZM23.9213 19.0767C24.5695 19.678 24.1776 20.8829 23.2951 21.0013C22.2683 21.1392 21.9 19.6056 22.8245 19.0415C23.2304 18.7938 23.6301 18.8067 23.9213 19.0767ZM20.3579 19.9073C20.5835 20.0972 20.6362 20.2104 20.6362 20.5047C20.6362 20.9795 20.1729 21.4835 19.7366 21.4835C19.0286 21.4835 18.7279 20.4823 19.2723 19.9375C19.6095 19.6002 19.9809 19.5898 20.3579 19.9073ZM14.697 19.8384C14.7793 19.9295 14.8467 20.1057 14.8467 20.23C14.8467 20.4832 14.5088 20.8498 14.2755 20.8498C14.0389 20.8498 13.7611 20.5152 13.7611 20.2301C13.7611 19.7399 14.3754 19.4828 14.697 19.8384ZM28.3692 20.2515C28.8348 20.7175 28.5578 21.904 27.8757 22.3661C27.4913 22.6266 27.3747 22.6223 27.0895 22.337C26.8847 22.132 26.8616 22.0469 26.8963 21.6271C26.9612 20.8446 27.3637 20.2484 27.9395 20.0821C28.0858 20.0399 28.2045 20.0867 28.3692 20.2515ZM32.3098 20.4448C32.2535 20.41 32.2154 20.4809 32.2154 20.6203C32.2154 20.749 32.138 21.0744 32.0435 21.3436C31.9083 21.7285 31.8987 21.8226 31.9983 21.7843C32.0877 21.75 32.127 21.8115 32.1321 21.9943C32.1363 22.1447 32.1925 22.0075 32.2663 21.6665C32.3362 21.3439 32.454 20.9019 32.5281 20.6842C32.6428 20.3475 32.6436 20.3044 32.5335 20.3958C32.4624 20.4549 32.3617 20.4769 32.3098 20.4448ZM25.5189 20.6664C25.9351 21.0829 25.8587 21.8007 25.3434 22.3164C25.0747 22.5853 24.9297 22.6603 24.679 22.6603C24.0604 22.6603 23.7827 21.8887 24.1344 21.147C24.4136 20.5582 25.1539 20.3011 25.5189 20.6664ZM16.7794 20.9469C17.25 21.3172 17.011 22.1172 16.4298 22.1172C15.8485 22.1172 15.6095 21.3172 16.0801 20.9469C16.2112 20.8437 16.3685 20.7592 16.4298 20.7592C16.491 20.7592 16.6483 20.8437 16.7794 20.9469ZM22.1671 21.3557C22.4022 21.5536 22.4455 21.6536 22.4455 21.9985C22.4455 22.8301 21.4623 23.3661 21.0047 22.7839C20.6339 22.3122 20.8328 21.535 21.3922 21.2694C21.8004 21.0755 21.8396 21.0799 22.1671 21.3557ZM31.0394 22.1463C31.0394 22.6995 30.8115 23.3011 30.4353 23.741C30.2116 24.0024 30.0532 24.11 29.92 24.091C29.7555 24.0675 29.7284 24.0045 29.7326 23.6562C29.7379 23.2098 30.1128 22.2939 30.4271 21.959C30.5324 21.8468 30.7133 21.755 30.829 21.755C31.0168 21.755 31.0394 21.7971 31.0394 22.1463ZM29.1941 22.0733C29.3612 22.3285 29.3191 22.8594 29.0977 23.2877C28.9203 23.631 28.2709 24.1993 28.0559 24.1993C27.7837 24.1993 27.573 23.8133 27.6502 23.4562C27.8124 22.7053 28.4653 21.8456 28.8732 21.8456C28.9677 21.8456 29.1122 21.948 29.1941 22.0733ZM18.6138 22.1164C18.8747 22.2217 19.0984 22.5579 19.0984 22.8445C19.0984 23.1222 18.8178 23.4513 18.5163 23.527C17.8307 23.6992 17.4886 22.6722 18.0773 22.2088C18.3339 22.0067 18.3397 22.0057 18.6138 22.1164ZM26.6671 22.3504C26.8614 22.5448 26.8922 22.6421 26.8528 22.9363C26.7625 23.6101 26.1525 24.2887 25.6363 24.2895C25.5206 24.2897 25.3713 24.1928 25.2854 24.0616C24.9666 23.5745 25.3999 22.5059 26.0218 22.2458C26.4164 22.0809 26.3941 22.0772 26.6671 22.3504ZM13.5954 22.4312C13.6851 22.628 13.6774 22.6924 13.5494 22.8206C13.338 23.032 13.0827 22.8647 13.0827 22.5147C13.0827 22.1494 13.4405 22.0911 13.5954 22.4312ZM23.6002 22.7542C24.0986 22.9545 24.0331 23.7968 23.4814 24.2816C22.9137 24.7803 22.355 24.5701 22.355 23.8579C22.355 23.4474 22.577 23.05 22.9248 22.8378C23.2455 22.642 23.3034 22.6349 23.6002 22.7542ZM32.1221 22.8867C32.1221 22.9364 32.0827 23.0383 32.0344 23.113C31.9862 23.1877 31.9468 23.208 31.9468 23.1582C31.9468 23.1085 31.9862 23.0066 32.0344 22.9319C32.0827 22.8572 32.1221 22.8369 32.1221 22.8867ZM15.6427 23.4027C15.8895 23.6496 15.6564 24.2899 15.3196 24.2899C15.1859 24.2899 14.9371 23.9277 14.9371 23.733C14.9371 23.3886 15.4084 23.1681 15.6427 23.4027ZM20.499 23.6011C20.8898 23.9923 20.7809 24.6162 20.2762 24.8774C19.9324 25.0553 19.8581 25.0501 19.6412 24.833C19.386 24.5777 19.3975 24.0069 19.6638 23.7138C19.978 23.3679 20.2318 23.3337 20.499 23.6011ZM30.948 23.8598C30.9458 24.3641 30.0454 25.7383 29.7172 25.7383C29.3741 25.7383 29.7805 24.6732 30.3746 24.015C30.7381 23.6123 30.9494 23.5552 30.948 23.8598ZM29.4412 23.7165C29.543 23.8184 29.5083 24.2794 29.3746 24.5996C29.2372 24.9287 28.6655 25.6047 28.4077 25.7428C28.1069 25.9039 27.9385 25.7482 27.9909 25.3575C28.1013 24.5342 29.1136 23.3887 29.4412 23.7165ZM31.7631 23.7949C31.7631 24.0223 30.6088 25.8807 30.5217 25.7936C30.4013 25.6731 31.4928 23.7467 31.6814 23.7467C31.7263 23.7467 31.7631 23.7684 31.7631 23.7949ZM27.3847 24.0646C27.7497 24.6222 26.9887 25.8273 26.2707 25.8285C26.0171 25.8289 25.8614 25.545 25.9368 25.2197C26.0356 24.7929 26.4263 24.1964 26.727 24.0129C27.103 23.7834 27.2059 23.7916 27.3847 24.0646ZM24.8139 24.3974C25.145 24.6561 25.0525 25.1448 24.5833 25.6145C24.1064 26.0917 23.6857 26.1594 23.5157 25.7862C23.3906 25.5114 23.6043 24.8753 23.9221 24.5765C24.1861 24.3283 24.6151 24.2421 24.8139 24.3974ZM17.4835 24.6905C17.695 25.155 17.3214 25.6778 16.9284 25.4673C16.6728 25.3304 16.6051 24.9695 16.7837 24.6966C16.9805 24.396 17.348 24.3929 17.4835 24.6905ZM21.9924 25.0584C22.1793 25.2839 22.0243 25.7828 21.6706 26.0936C21.2876 26.4301 21.0508 26.4463 20.8563 26.1491C20.5645 25.7034 21.0326 24.9236 21.5921 24.9236C21.7507 24.9236 21.9308 24.9842 21.9924 25.0584ZM29.3652 25.4657C29.4661 25.6291 29.0696 26.3564 28.6517 26.7745C28.2411 27.1855 27.8732 27.3144 27.8732 27.0474C27.8732 26.7886 28.2451 26.1761 28.646 25.775C29.0378 25.3828 29.2561 25.289 29.3652 25.4657ZM30.4061 25.5847C30.4061 25.9177 29.2248 27.3927 29.0767 27.2445C28.9854 27.1532 29.2753 26.6453 29.7638 26.0406C30.1959 25.5058 30.4061 25.3566 30.4061 25.5847ZM27.6923 25.7881C27.6923 26.3461 26.8192 27.2773 26.2961 27.2773C26.0572 27.2773 26.1301 26.7959 26.4346 26.363C26.8147 25.8225 27.1458 25.5583 27.4435 25.5577C27.6499 25.5574 27.6923 25.5966 27.6923 25.7881ZM18.9898 25.7564C19.1724 25.9391 19.1155 26.3632 18.8763 26.6024C18.7542 26.7246 18.6147 26.8247 18.5662 26.8247C18.3906 26.8247 18.1938 26.5342 18.1938 26.2751C18.1938 25.8137 18.7107 25.4771 18.9898 25.7564ZM14.694 25.7063C14.8271 25.8394 14.7571 26.1139 14.5979 26.0832C14.5109 26.0664 14.4396 25.9751 14.4396 25.8805C14.4396 25.7003 14.5871 25.5993 14.694 25.7063ZM25.4871 25.9609C25.6296 26.3325 24.97 27.2434 24.4356 27.4131C23.8654 27.5943 23.9286 26.7889 24.532 26.1851C24.9094 25.8074 25.3853 25.6957 25.4871 25.9609ZM22.9279 26.2514C22.9611 26.2845 22.9883 26.4522 22.9883 26.6241C22.9883 26.8663 22.9093 27.0155 22.6371 27.288C22.008 27.9174 21.4986 27.6396 21.865 26.867C22.0841 26.4048 22.7158 26.039 22.9279 26.2514ZM16.4329 26.8348C16.4716 26.9568 16.4412 27.0783 16.3486 27.171C16.2155 27.3041 16.1917 27.3041 16.0586 27.171C15.8752 26.9875 15.9698 26.6436 16.2036 26.6436C16.2964 26.6436 16.3996 26.7296 16.4329 26.8348ZM20.1613 26.8846C20.38 26.973 20.2906 27.4995 20.0115 27.7671C19.66 28.1041 19.3698 28.0292 19.3698 27.6013C19.3698 27.126 19.7983 26.738 20.1613 26.8846ZM28.8683 27.1477C28.8683 27.3391 27.6662 28.5447 27.4754 28.5447C27.2674 28.5447 27.2942 28.4567 27.6316 28.0321C27.9573 27.6221 28.3449 27.275 28.6647 27.1065C28.8366 27.0161 28.8683 27.0225 28.8683 27.1477ZM27.5114 27.1987C27.5114 27.6796 26.1182 28.8523 25.9228 28.5359C25.8445 28.409 26.2955 27.7782 26.7318 27.4045C27.0815 27.1049 27.5114 26.9915 27.5114 27.1987ZM29.4462 27.2999C29.1501 27.8083 27.9654 28.9553 28.2167 28.4905C28.3576 28.2296 29.3234 27.1868 29.424 27.1868C29.4725 27.1868 29.4825 27.2378 29.4462 27.2999ZM25.5513 27.3377C25.6869 27.4734 25.5966 27.8008 25.3629 28.0207C25.0208 28.3426 24.4362 28.7258 24.2873 28.7258C23.9175 28.7258 24.3853 27.9059 24.965 27.538C25.4011 27.2612 25.4561 27.2424 25.5513 27.3377ZM23.3802 27.6093C23.512 27.7411 23.4267 28.011 23.1558 28.3199C22.6821 28.8597 22.1741 29.0374 22.1741 28.6632C22.1741 28.1913 23.1285 27.3573 23.3802 27.6093ZM17.7772 27.8737C17.8479 28.058 17.5932 28.4802 17.4417 28.4297C17.3827 28.4099 17.3344 28.2547 17.3344 28.0846C17.3344 27.8382 17.3735 27.7696 17.5264 27.7478C17.6419 27.7313 17.7419 27.7815 17.7772 27.8737ZM21.0886 28.2873C21.0886 28.5904 20.6642 29.0879 20.4055 29.0879C20.2221 29.0879 20.1839 29.0434 20.1839 28.8295C20.1839 28.497 20.5541 28.0921 20.8581 28.0921C21.0338 28.0921 21.0886 28.1384 21.0886 28.2873ZM27.8732 28.6178C27.8732 28.7436 27.0363 29.5008 26.7114 29.669C26.2905 29.8868 26.3638 29.6994 26.8743 29.2525C27.3861 28.8045 27.8732 28.4949 27.8732 28.6178ZM26.8781 28.6472C26.8781 28.8977 25.5056 29.9173 25.362 29.7736C25.2565 29.6679 25.473 29.4179 26.0536 28.9747C26.6075 28.5521 26.8781 28.4446 26.8781 28.6472ZM25.3403 28.7607C25.3403 29.0599 24.0985 29.9575 23.9249 29.7839C23.8259 29.6848 24.1558 29.277 24.5968 28.9531C25.0437 28.6249 25.3403 28.5483 25.3403 28.7607ZM27.7827 29.1738C27.5091 29.4297 27.2038 29.6808 27.1043 29.7317C26.8959 29.8383 26.9473 29.7915 27.7961 29.1018L28.2803 28.7085L27.7827 29.1738ZM18.7721 28.869C18.8543 29.0835 18.8408 29.1517 18.6849 29.3078C18.473 29.5197 18.2842 29.4837 18.2842 29.2311C18.2842 28.8982 18.3769 28.7258 18.5556 28.7258C18.6445 28.7258 18.7419 28.7902 18.7721 28.869ZM23.4406 28.9807C23.4406 29.2939 22.3635 30.1224 22.1866 29.9453C22.0271 29.7858 22.7952 28.9954 23.237 28.8645C23.3991 28.8164 23.4406 28.84 23.4406 28.9807ZM21.4504 29.3735C21.4504 29.5211 20.7462 30.1742 20.5872 30.1742C20.3585 30.1742 20.4437 29.8588 20.7537 29.5583C21.0463 29.2745 21.4504 29.1673 21.4504 29.3735ZM19.3698 29.8523C19.3698 30.0536 18.9621 30.484 18.8418 30.4097C18.6829 30.3114 18.7136 30.189 18.9586 29.9439C19.2086 29.6936 19.3698 29.6578 19.3698 29.8523ZM25.883 29.8965C25.883 30.0729 24.5768 30.8888 24.4683 30.7803C24.4001 30.712 24.9802 30.2669 25.4437 30.0319C25.6853 29.9094 25.883 29.8484 25.883 29.8965ZM26.5163 30.0361C26.347 30.2458 25.4317 30.8391 25.371 30.7784C25.3331 30.7404 26.0761 30.2007 26.5163 29.9463C26.6369 29.8766 26.6369 29.8865 26.5163 30.0361ZM24.5627 30.0942C24.3633 30.3159 23.5418 30.8059 23.3674 30.8071C23.1648 30.8086 23.3502 30.6229 23.9178 30.2557C24.5352 29.8564 24.8469 29.7784 24.5627 30.0942ZM23.0787 30.0757C23.0787 30.2834 22.1238 30.8985 21.8011 30.8985C21.6352 30.8985 21.9666 30.5723 22.4439 30.2658C22.876 29.9883 23.0787 29.9276 23.0787 30.0757ZM21.2695 30.4026C21.2695 30.5314 20.5165 31.0795 20.3396 31.0795C20.1747 31.0795 20.3461 30.8438 20.7182 30.559C21.1444 30.2328 21.2695 30.1973 21.2695 30.4026ZM17.5605 30.531C17.5605 30.5779 17.5198 30.6414 17.4701 30.6722C17.4203 30.7029 17.3796 30.6646 17.3796 30.587C17.3796 30.5094 17.4203 30.4458 17.4701 30.4458C17.5198 30.4458 17.5605 30.4841 17.5605 30.531ZM19.3245 30.989C19.1815 31.1384 19.0035 31.2606 18.9289 31.2606C18.8359 31.2606 18.8749 31.1751 19.0532 30.989C19.1962 30.8396 19.3742 30.7174 19.4488 30.7174C19.5418 30.7174 19.5028 30.8029 19.3245 30.989ZM24.6166 31.0329C24.6166 31.1169 23.4396 31.6519 23.3819 31.5942C23.3545 31.5668 23.5295 31.445 23.7708 31.3237C24.2771 31.0689 24.6166 30.9523 24.6166 31.0329ZM23.6215 31.0391C23.6215 31.1316 22.4492 31.6391 22.3337 31.5966C22.2708 31.5735 22.4839 31.4274 22.8073 31.2718C23.3684 31.0021 23.6215 30.9297 23.6215 31.0391ZM22.2646 31.0784C22.2646 31.1802 21.8572 31.402 21.327 31.5888C20.9952 31.7057 20.9682 31.7054 21.0886 31.5855C21.2773 31.3977 22.2646 30.9718 22.2646 31.0784ZM25.0689 31.1222C25.0689 31.1471 24.8246 31.2908 24.5261 31.4417C24.2276 31.5925 23.9833 31.6955 23.9833 31.6706C23.9833 31.6457 24.2276 31.5019 24.5261 31.3511C24.8246 31.2003 25.0689 31.0973 25.0689 31.1222ZM20.7406 31.2891C20.6082 31.4487 19.8225 31.8344 19.759 31.7709C19.7007 31.7125 20.0599 31.4838 20.4964 31.3015C20.8004 31.1746 20.8371 31.1728 20.7406 31.2891ZM17.8301 31.3986C17.7672 31.4744 17.697 31.5179 17.6742 31.4952C17.6116 31.4323 17.739 31.2606 17.8483 31.2606C17.9084 31.2606 17.9015 31.3126 17.8301 31.3986ZM19.1433 31.6233C19.1122 31.6735 18.9572 31.7773 18.7987 31.8538L18.5104 31.9932L18.7818 31.7631C19.0569 31.5299 19.2461 31.4568 19.1433 31.6233ZM21.938 32.0248C21.7832 32.097 21.539 32.1789 21.3952 32.2067L21.1338 32.2574L21.4151 32.126C21.5699 32.0537 21.8141 31.9718 21.9579 31.944L22.2193 31.8933L21.938 32.0248ZM20.73 32.0831C20.458 32.1796 20.1942 32.2447 20.1436 32.2279C20.0299 32.19 20.8856 31.8918 21.082 31.9009C21.1603 31.9045 21.0018 31.9866 20.73 32.0831ZM22.8978 32.0216C22.8978 32.0418 22.7146 32.1208 22.4907 32.1971C22.0029 32.3635 21.951 32.3144 22.4113 32.1218C22.7385 31.985 22.8978 31.9522 22.8978 32.0216ZM19.5055 32.1644C19.3065 32.2621 19.0826 32.34 19.0079 32.3372C18.8557 32.3316 19.2931 32.1278 19.6412 32.042C19.7675 32.011 19.7077 32.065 19.5055 32.1644ZM18.2842 32.3469C18.2096 32.3952 18.1078 32.4347 18.0581 32.4347C18.0083 32.4347 18.0287 32.3952 18.1033 32.3469C18.1779 32.2987 18.2797 32.2592 18.3295 32.2592C18.3792 32.2592 18.3589 32.2987 18.2842 32.3469ZM20.5684 32.5879C20.5062 32.6131 20.4044 32.6131 20.3422 32.5879C20.28 32.5629 20.3309 32.5423 20.4553 32.5423C20.5797 32.5423 20.6305 32.5629 20.5684 32.5879ZM19.4829 32.5879C19.4206 32.6131 19.3188 32.6131 19.2567 32.5879C19.1945 32.5629 19.2454 32.5423 19.3698 32.5423C19.4942 32.5423 19.545 32.5629 19.4829 32.5879ZM21.2242 32.7091C21.1247 32.7519 20.9823 32.7891 20.9076 32.7918C20.787 32.7962 20.787 32.7871 20.9076 32.7091C20.9823 32.6608 21.1247 32.6235 21.2242 32.6263L21.4052 32.6313L21.2242 32.7091ZM20.1104 32.6804C20.0452 32.7065 19.9671 32.7033 19.9371 32.6732C19.907 32.6432 19.9604 32.6218 20.0557 32.6257C20.1611 32.63 20.1826 32.6515 20.1104 32.6804Z" fill="#00B5A0"/>
</g>
<path d="M17.7557 26.6031C17.9137 24.6976 24.8198 16.4092 28.1725 12.7747C24.9778 15.8093 18.0567 23.228 17.0351 24.1008C15.7248 25.2202 14.349 27.7225 15.5938 30.2906C16.8439 32.8698 19.1125 33.3003 20.2453 33.0563C21.1625 32.8588 22.265 32.5673 22.6863 32.2674C19.0527 32.7967 17.5494 29.0911 17.7557 26.6031Z" fill="black" fill-opacity="0.14"/>
<path d="M89.5765 25.9594C88.2488 25.9594 87.0123 25.7175 85.8671 25.2337C84.7219 24.7499 83.7178 24.0743 82.8547 23.2068C81.9917 22.3394 81.3195 21.3218 80.8382 20.1541C80.3569 18.9863 80.1162 17.7102 80.1162 16.3256C80.1162 14.941 80.3486 13.6648 80.8133 12.4971C81.278 11.3127 81.9336 10.2951 82.78 9.44429C83.6265 8.57683 84.614 7.90955 85.7426 7.44246C86.8878 6.95868 88.1326 6.7168 89.4769 6.7168C90.8213 6.7168 92.0246 6.942 93.0868 7.39241C94.1656 7.84282 95.0784 8.44337 95.8253 9.19406C96.5722 9.94474 97.1033 10.7788 97.4186 11.6963L94.0079 13.3478C93.6926 12.447 93.1366 11.7047 92.3399 11.1208C91.5599 10.5203 90.6055 10.22 89.4769 10.22C88.3815 10.22 87.4189 10.4786 86.5891 10.9957C85.7592 11.5128 85.1119 12.2302 84.6472 13.1477C84.1991 14.0485 83.975 15.1078 83.975 16.3256C83.975 17.5433 84.2157 18.611 84.697 19.5285C85.1783 20.446 85.8339 21.1633 86.6637 21.6805C87.5102 22.1976 88.4811 22.4562 89.5765 22.4562C90.423 22.4562 91.2113 22.2977 91.9416 21.9807C92.6885 21.6471 93.286 21.1717 93.7341 20.5544C94.1988 19.9372 94.4312 19.1948 94.4312 18.3274V16.776L96.1987 18.2773H89.4769V15.0244H98.421V17.0012C98.421 18.5192 98.041 19.8454 97.5431 20.9798C97.0452 22.0975 96.373 23.0317 95.5266 23.7824C94.6967 24.5164 93.759 25.0669 92.7134 25.4339C91.6843 25.7842 90.6387 25.9594 89.5765 25.9594Z" fill="url(#paint2_linear_2960_6399)"/>
<path d="M106.307 25.9594C104.963 25.9594 103.734 25.6507 102.622 25.0335C101.527 24.4163 100.647 23.5738 99.9835 22.5062C99.3362 21.4219 99.0126 20.1958 99.0126 18.8278C99.0126 17.4433 99.3362 16.2171 99.9835 15.1495C100.647 14.0819 101.527 13.2394 102.622 12.6222C103.734 12.005 104.963 11.6963 106.307 11.6963C107.651 11.6963 108.871 12.005 109.967 12.6222C111.062 13.2394 111.933 14.0819 112.581 15.1495C113.245 16.2171 113.576 17.4433 113.576 18.8278C113.576 20.1958 113.245 21.4219 112.581 22.5062C111.933 23.5738 111.062 24.4163 109.967 25.0335C108.871 25.6507 107.651 25.9594 106.307 25.9594ZM106.307 22.5813C106.987 22.5813 107.577 22.4228 108.075 22.1058C108.589 21.7889 108.987 21.3468 109.27 20.7796C109.568 20.2124 109.718 19.5619 109.718 18.8278C109.718 18.0938 109.568 17.4516 109.27 16.9011C108.987 16.3339 108.589 15.8918 108.075 15.5749C107.577 15.2412 106.987 15.0744 106.307 15.0744C105.627 15.0744 105.029 15.2412 104.515 15.5749C104 15.8918 103.593 16.3339 103.295 16.9011C103.012 17.4516 102.871 18.0938 102.871 18.8278C102.871 19.5619 103.012 20.2124 103.295 20.7796C103.593 21.3468 104 21.7889 104.515 22.1058C105.029 22.4228 105.627 22.5813 106.307 22.5813Z" fill="url(#paint3_linear_2960_6399)"/>
<path d="M114.283 25.6591V6.7168H118.017V25.6591H114.283Z" fill="url(#paint4_linear_2960_6399)"/>
<path d="M120.899 25.6591V15.2496H118.609V11.9966H120.899V11.7964C120.899 10.7121 121.107 9.79461 121.521 9.04392C121.953 8.29323 122.567 7.71771 123.364 7.31734C124.16 6.91698 125.123 6.7168 126.252 6.7168C126.467 6.7168 126.7 6.73348 126.949 6.76684C127.198 6.78352 127.405 6.80855 127.571 6.84191V10.0448C127.405 10.0115 127.256 9.99479 127.123 9.99479C127.007 9.97811 126.882 9.96976 126.75 9.96976C126.052 9.96976 125.521 10.1282 125.156 10.4452C124.808 10.7455 124.633 11.1959 124.633 11.7964V11.9966H127.546V15.2496H124.633V25.6591H120.899Z" fill="url(#paint5_linear_2960_6399)"/>
<path d="M37.2144 25.6222V6.98022H41.0732V25.6222H37.2144Z" fill="black"/>
<path d="M42.5945 25.6222V11.9598H46.0799V14.6622L45.8807 14.0617C46.1961 13.2443 46.7023 12.6437 47.3994 12.26C48.113 11.8597 48.9429 11.6595 49.8889 11.6595C50.9179 11.6595 51.8142 11.8764 52.5776 12.3101C53.3577 12.7438 53.9635 13.3527 54.395 14.1368C54.8265 14.9041 55.0423 15.8049 55.0423 16.8392V25.6222H51.308V17.64C51.308 17.1061 51.2001 16.6474 50.9843 16.2637C50.7852 15.88 50.4947 15.5797 50.113 15.3629C49.7478 15.146 49.3163 15.0376 48.8184 15.0376C48.3371 15.0376 47.9056 15.146 47.5238 15.3629C47.1421 15.5797 46.8434 15.88 46.6276 16.2637C46.4284 16.6474 46.3289 17.1061 46.3289 17.64V25.6222H42.5945Z" fill="black"/>
<path d="M62.5516 25.7724C60.9085 25.7724 59.6305 25.3303 58.7177 24.4462C57.8215 23.5453 57.3733 22.2942 57.3733 20.6927V15.2127H55.0829V11.9598H55.2074C55.9045 11.9598 56.4356 11.7846 56.8007 11.4343C57.1825 11.084 57.3733 10.5585 57.3733 9.85785V8.85694H61.1077V11.9598H64.2943V15.2127H61.1077V20.4425C61.1077 20.9096 61.1907 21.3016 61.3566 21.6186C61.5226 21.9189 61.7799 22.1441 62.1284 22.2942C62.4769 22.4443 62.9084 22.5194 63.423 22.5194C63.5391 22.5194 63.6719 22.5111 63.8213 22.4944C63.9707 22.4777 64.1283 22.461 64.2943 22.4443V25.6222C64.0453 25.6556 63.7632 25.689 63.4479 25.7223C63.1325 25.7557 62.8338 25.7724 62.5516 25.7724Z" fill="black"/>
<path d="M71.5364 25.9225C70.0924 25.9225 68.8394 25.6056 67.7771 24.9716C66.7149 24.321 65.8934 23.4536 65.3125 22.3693C64.7316 21.2849 64.4411 20.0838 64.4411 18.766C64.4411 17.3981 64.7399 16.1803 65.3374 15.1126C65.9515 14.045 66.773 13.2026 67.802 12.5853C68.8311 11.9681 69.9929 11.6595 71.2874 11.6595C72.3662 11.6595 73.3206 11.8347 74.1504 12.185C74.9803 12.5186 75.6773 12.994 76.2416 13.6113C76.8225 14.2285 77.2624 14.9458 77.5611 15.7632C77.8598 16.564 78.0092 17.4398 78.0092 18.3906C78.0092 18.6575 77.9926 18.9245 77.9594 19.1914C77.9428 19.4416 77.9013 19.6585 77.835 19.842H67.6527V17.0894H75.7188L73.9512 18.3906C74.1172 17.6733 74.1089 17.0394 73.9264 16.4889C73.7438 15.9217 73.4201 15.4796 72.9554 15.1627C72.5073 14.8291 71.9513 14.6622 71.2874 14.6622C70.6401 14.6622 70.0841 14.8207 69.6194 15.1377C69.1547 15.4546 68.8062 15.9217 68.5738 16.5389C68.3414 17.1562 68.2502 17.9069 68.3 18.791C68.2336 19.5584 68.3249 20.234 68.5738 20.8179C68.8228 21.4017 69.2045 21.8605 69.719 22.1941C70.2335 22.5111 70.8559 22.6695 71.5862 22.6695C72.25 22.6695 72.8144 22.5361 73.2791 22.2692C73.7604 22.0023 74.1338 21.6353 74.3994 21.1682L77.3868 22.5945C77.1213 23.2617 76.6981 23.8456 76.1172 24.3461C75.5529 24.8465 74.8807 25.2386 74.1006 25.5221C73.3206 25.7891 72.4658 25.9225 71.5364 25.9225Z" fill="black"/>
<defs>
<linearGradient id="paint0_linear_2960_6399" x1="16.6407" y1="0" x2="16.6407" y2="32.544" gradientUnits="userSpaceOnUse">
<stop stop-color="#00D1D1"/>
<stop offset="1" stop-color="#00D179"/>
</linearGradient>
<linearGradient id="paint1_linear_2960_6399" x1="16.6407" y1="0" x2="16.6407" y2="32.544" gradientUnits="userSpaceOnUse">
<stop stop-color="#00D1D1"/>
<stop offset="1" stop-color="#00D179"/>
</linearGradient>
<linearGradient id="paint2_linear_2960_6399" x1="103.256" y1="6.7168" x2="103.256" y2="25.9594" gradientUnits="userSpaceOnUse">
<stop stop-color="#00D1D1"/>
<stop offset="1" stop-color="#00D179"/>
</linearGradient>
<linearGradient id="paint3_linear_2960_6399" x1="103.256" y1="6.7168" x2="103.256" y2="25.9594" gradientUnits="userSpaceOnUse">
<stop stop-color="#00D1D1"/>
<stop offset="1" stop-color="#00D179"/>
</linearGradient>
<linearGradient id="paint4_linear_2960_6399" x1="103.256" y1="6.7168" x2="103.256" y2="25.9594" gradientUnits="userSpaceOnUse">
<stop stop-color="#00D1D1"/>
<stop offset="1" stop-color="#00D179"/>
</linearGradient>
<linearGradient id="paint5_linear_2960_6399" x1="103.256" y1="6.7168" x2="103.256" y2="25.9594" gradientUnits="userSpaceOnUse">
<stop stop-color="#00D1D1"/>
<stop offset="1" stop-color="#00D179"/>
</linearGradient>
</defs>
</svg>
